<?xml version="1.0" standalone="no"?>
<!DOCTYPE svg PUBLIC "-//W3C//DTD SVG 20010904//EN"
 "http://www.w3.org/TR/2001/REC-SVG-20010904/DTD/svg10.dtd">
<svg version="1.0" xmlns="http://www.w3.org/2000/svg"
 width="214.000000pt" height="214.000000pt" viewBox="0 0 214.000000 214.000000"
 preserveAspectRatio="xMidYMid meet">
<metadata>
Created by potrace 1.14, written by Peter Selinger 2001-2017
</metadata>
<g transform="translate(0.000000,214.000000) scale(0.100000,-0.100000)"
fill="#000000" stroke="none">
<path d="M915 2130 c-88 -10 -225 -47 -246 -66 -8 -8 -21 -14 -28 -14 -15 0
-134 -67 -190 -108 -58 -42 -161 -139 -161 -151 0 -15 -45 -61 -59 -61 -7 0
-10 -4 -7 -9 3 -5 -1 -14 -9 -21 -8 -6 -38 -53 -68 -103 -52 -88 -78 -157 -92
-240 -3 -21 -16 -48 -27 -59 -18 -18 -18 -20 -4 -15 15 6 17 4 11 -10 -21 -51
-26 -111 -22 -233 5 -128 15 -183 62 -331 5 -15 4 -19 -4 -15 -6 4 -11 2 -11
-3 0 -6 6 -11 14 -11 7 0 27 -29 45 -64 56 -115 131 -217 229 -313 140 -139
276 -222 412 -254 19 -4 71 -17 115 -28 60 -15 113 -20 210 -20 125 0 160 5
320 48 63 17 172 65 209 92 22 16 45 29 51 29 18 0 228 208 274 272 55 77 113
183 104 192 -4 4 1 12 11 18 13 7 15 12 6 18 -8 5 -6 23 9 70 35 104 51 216
51 344 0 121 -14 241 -30 261 -8 9 -13 35 -24 110 -2 17 -18 55 -35 85 -17 30
-31 65 -31 78 0 12 -4 22 -8 22 -11 0 -102 125 -102 141 0 7 -3 9 -6 6 -4 -3
-19 10 -34 31 -65 91 -309 243 -445 280 -22 6 -60 16 -84 22 -56 15 -314 21
-406 10z m313 -1169 c36 -11 126 -60 120 -66 -2 -2 -66 1 -143 6 -77 6 -196 8
-265 5 l-125 -6 57 30 c101 53 240 65 356 31z"/>
</g>
</svg>
